<svg xmlns="http://www.w3.org/2000/svg" width="256" height="256" viewBox="0 0 100 100"><rect width="100" height="100" rx="20" fill="#90ee90"></rect><path d="M48.19 25.12L48.19 33.49L35.88 33.49L35.88 74.88L25.80 74.88L25.80 33.49L13.70 33.49L13.70 25.12L48.19 25.12ZM66.85 74.88L53.96 74.88L53.96 25.12L67.12 25.12Q75.84 25.12 81.02 30.65Q86.20 36.19 86.30 45.83L86.30 45.83L86.30 53.90Q86.30 63.71 81.12 69.29Q75.94 74.88 66.85 74.88L66.85 74.88ZM67.67 33.49L64.01 33.49L64.01 66.54L67.02 66.54Q72.05 66.54 74.10 63.89Q76.15 61.25 76.25 54.75L76.25 54.75L76.25 46.10Q76.25 39.13 74.30 36.38Q72.35 33.63 67.67 33.49L67.67 33.49Z" fill="#ffffff"></path></svg>